<mxfile host="app.diagrams.net" modified="2022-06-28T18:37:17.505Z" agent="5.0 (Macintosh; Intel Mac OS X 10_15_7) AppleWebKit/605.1.15 (KHTML, like Gecko) Version/15.5 Safari/605.1.15" etag="_FuRlzpa8OWqG9rq3Teh" version="20.0.3" type="github">
  <diagram id="5xQLQ3MctvJ53D5HnWLp" name="Page-1">
    <mxGraphModel dx="1426" dy="741" grid="1" gridSize="10" guides="1" tooltips="1" connect="1" arrows="1" fold="1" page="1" pageScale="1" pageWidth="827" pageHeight="1169" math="0" shadow="0">
      <root>
        <mxCell id="0" />
        <mxCell id="1" parent="0" />
        <mxCell id="T4jJ2TgZXyu-tDNirxbV-3" value="" style="edgeStyle=orthogonalEdgeStyle;rounded=0;orthogonalLoop=1;jettySize=auto;html=1;" edge="1" parent="1" source="T4jJ2TgZXyu-tDNirxbV-1" target="T4jJ2TgZXyu-tDNirxbV-2">
          <mxGeometry relative="1" as="geometry" />
        </mxCell>
        <mxCell id="T4jJ2TgZXyu-tDNirxbV-1" value="Place an Order" style="rounded=0;whiteSpace=wrap;html=1;" vertex="1" parent="1">
          <mxGeometry x="354" y="40" width="120" height="60" as="geometry" />
        </mxCell>
        <mxCell id="T4jJ2TgZXyu-tDNirxbV-12" value="" style="edgeStyle=orthogonalEdgeStyle;rounded=0;orthogonalLoop=1;jettySize=auto;html=1;" edge="1" parent="1" source="T4jJ2TgZXyu-tDNirxbV-2" target="T4jJ2TgZXyu-tDNirxbV-11">
          <mxGeometry relative="1" as="geometry" />
        </mxCell>
        <mxCell id="T4jJ2TgZXyu-tDNirxbV-2" value="CheckoutViewModel&lt;br&gt;proceeds to Checkout" style="whiteSpace=wrap;html=1;rounded=0;" vertex="1" parent="1">
          <mxGeometry x="354" y="180" width="120" height="60" as="geometry" />
        </mxCell>
        <mxCell id="T4jJ2TgZXyu-tDNirxbV-14" value="" style="edgeStyle=orthogonalEdgeStyle;rounded=0;orthogonalLoop=1;jettySize=auto;html=1;" edge="1" parent="1" source="T4jJ2TgZXyu-tDNirxbV-11" target="T4jJ2TgZXyu-tDNirxbV-13">
          <mxGeometry relative="1" as="geometry" />
        </mxCell>
        <mxCell id="T4jJ2TgZXyu-tDNirxbV-20" value="" style="edgeStyle=orthogonalEdgeStyle;rounded=0;orthogonalLoop=1;jettySize=auto;html=1;" edge="1" parent="1" source="T4jJ2TgZXyu-tDNirxbV-11" target="T4jJ2TgZXyu-tDNirxbV-19">
          <mxGeometry relative="1" as="geometry" />
        </mxCell>
        <mxCell id="T4jJ2TgZXyu-tDNirxbV-24" value="" style="edgeStyle=orthogonalEdgeStyle;rounded=0;orthogonalLoop=1;jettySize=auto;html=1;" edge="1" parent="1" source="T4jJ2TgZXyu-tDNirxbV-11" target="T4jJ2TgZXyu-tDNirxbV-23">
          <mxGeometry relative="1" as="geometry" />
        </mxCell>
        <mxCell id="T4jJ2TgZXyu-tDNirxbV-11" value="Payment &lt;br&gt;Type&lt;br&gt;" style="rhombus;whiteSpace=wrap;html=1;rounded=0;" vertex="1" parent="1">
          <mxGeometry x="374" y="310" width="80" height="80" as="geometry" />
        </mxCell>
        <mxCell id="T4jJ2TgZXyu-tDNirxbV-13" value="Apple Pay" style="whiteSpace=wrap;html=1;rounded=0;" vertex="1" parent="1">
          <mxGeometry x="490" y="320" width="120" height="60" as="geometry" />
        </mxCell>
        <mxCell id="T4jJ2TgZXyu-tDNirxbV-22" value="" style="edgeStyle=orthogonalEdgeStyle;rounded=0;orthogonalLoop=1;jettySize=auto;html=1;" edge="1" parent="1" source="T4jJ2TgZXyu-tDNirxbV-19" target="T4jJ2TgZXyu-tDNirxbV-21">
          <mxGeometry relative="1" as="geometry" />
        </mxCell>
        <mxCell id="T4jJ2TgZXyu-tDNirxbV-19" value="Card&lt;br&gt;" style="whiteSpace=wrap;html=1;rounded=0;" vertex="1" parent="1">
          <mxGeometry x="354" y="440" width="120" height="60" as="geometry" />
        </mxCell>
        <mxCell id="T4jJ2TgZXyu-tDNirxbV-34" style="edgeStyle=orthogonalEdgeStyle;rounded=0;orthogonalLoop=1;jettySize=auto;html=1;entryX=1;entryY=0.75;entryDx=0;entryDy=0;" edge="1" parent="1" source="T4jJ2TgZXyu-tDNirxbV-21" target="T4jJ2TgZXyu-tDNirxbV-33">
          <mxGeometry relative="1" as="geometry" />
        </mxCell>
        <mxCell id="T4jJ2TgZXyu-tDNirxbV-48" value="" style="edgeStyle=orthogonalEdgeStyle;rounded=0;orthogonalLoop=1;jettySize=auto;html=1;" edge="1" parent="1" source="T4jJ2TgZXyu-tDNirxbV-21" target="T4jJ2TgZXyu-tDNirxbV-47">
          <mxGeometry relative="1" as="geometry" />
        </mxCell>
        <mxCell id="T4jJ2TgZXyu-tDNirxbV-21" value="is 3DS" style="rhombus;whiteSpace=wrap;html=1;rounded=0;" vertex="1" parent="1">
          <mxGeometry x="374" y="570" width="80" height="80" as="geometry" />
        </mxCell>
        <mxCell id="T4jJ2TgZXyu-tDNirxbV-26" value="" style="edgeStyle=orthogonalEdgeStyle;rounded=0;orthogonalLoop=1;jettySize=auto;html=1;" edge="1" parent="1" source="T4jJ2TgZXyu-tDNirxbV-23" target="T4jJ2TgZXyu-tDNirxbV-25">
          <mxGeometry relative="1" as="geometry" />
        </mxCell>
        <mxCell id="T4jJ2TgZXyu-tDNirxbV-23" value="Cash/Credits" style="whiteSpace=wrap;html=1;rounded=0;" vertex="1" parent="1">
          <mxGeometry x="194" y="320" width="120" height="60" as="geometry" />
        </mxCell>
        <mxCell id="T4jJ2TgZXyu-tDNirxbV-25" value="Proceed to Tracking Screen" style="whiteSpace=wrap;html=1;rounded=0;" vertex="1" parent="1">
          <mxGeometry x="10" y="480" width="120" height="60" as="geometry" />
        </mxCell>
        <mxCell id="T4jJ2TgZXyu-tDNirxbV-30" value="No" style="text;html=1;strokeColor=none;fillColor=none;align=center;verticalAlign=middle;whiteSpace=wrap;rounded=0;" vertex="1" parent="1">
          <mxGeometry x="414" y="670" width="60" height="30" as="geometry" />
        </mxCell>
        <mxCell id="T4jJ2TgZXyu-tDNirxbV-32" value="Order Repository" style="swimlane;" vertex="1" parent="1">
          <mxGeometry x="330" y="730" width="200" height="360" as="geometry" />
        </mxCell>
        <mxCell id="T4jJ2TgZXyu-tDNirxbV-33" value="Pre Charge" style="rounded=0;whiteSpace=wrap;html=1;" vertex="1" parent="T4jJ2TgZXyu-tDNirxbV-32">
          <mxGeometry x="40" y="60" width="120" height="60" as="geometry" />
        </mxCell>
        <mxCell id="T4jJ2TgZXyu-tDNirxbV-41" value="Place Order" style="rounded=0;whiteSpace=wrap;html=1;fillColor=#fff2cc;strokeColor=#d6b656;" vertex="1" parent="T4jJ2TgZXyu-tDNirxbV-32">
          <mxGeometry x="44" y="290" width="120" height="60" as="geometry" />
        </mxCell>
        <mxCell id="T4jJ2TgZXyu-tDNirxbV-38" value="" style="edgeStyle=orthogonalEdgeStyle;rounded=0;orthogonalLoop=1;jettySize=auto;html=1;" edge="1" parent="1" source="T4jJ2TgZXyu-tDNirxbV-35" target="T4jJ2TgZXyu-tDNirxbV-37">
          <mxGeometry relative="1" as="geometry" />
        </mxCell>
        <mxCell id="T4jJ2TgZXyu-tDNirxbV-35" value="Success" style="rhombus;whiteSpace=wrap;html=1;rounded=0;" vertex="1" parent="1">
          <mxGeometry x="190" y="780" width="80" height="80" as="geometry" />
        </mxCell>
        <mxCell id="T4jJ2TgZXyu-tDNirxbV-36" value="" style="edgeStyle=orthogonalEdgeStyle;rounded=0;orthogonalLoop=1;jettySize=auto;html=1;" edge="1" parent="1" source="T4jJ2TgZXyu-tDNirxbV-33" target="T4jJ2TgZXyu-tDNirxbV-35">
          <mxGeometry relative="1" as="geometry" />
        </mxCell>
        <mxCell id="T4jJ2TgZXyu-tDNirxbV-40" value="" style="edgeStyle=orthogonalEdgeStyle;rounded=0;orthogonalLoop=1;jettySize=auto;html=1;" edge="1" parent="1" source="T4jJ2TgZXyu-tDNirxbV-37" target="T4jJ2TgZXyu-tDNirxbV-39">
          <mxGeometry relative="1" as="geometry" />
        </mxCell>
        <mxCell id="T4jJ2TgZXyu-tDNirxbV-37" value="OnePageCheckout&lt;br&gt;ViewModel&lt;br&gt;Process Payment" style="whiteSpace=wrap;html=1;rounded=0;" vertex="1" parent="1">
          <mxGeometry x="10" y="790" width="120" height="60" as="geometry" />
        </mxCell>
        <mxCell id="T4jJ2TgZXyu-tDNirxbV-42" style="edgeStyle=orthogonalEdgeStyle;rounded=0;orthogonalLoop=1;jettySize=auto;html=1;" edge="1" parent="1" source="T4jJ2TgZXyu-tDNirxbV-39" target="T4jJ2TgZXyu-tDNirxbV-41">
          <mxGeometry relative="1" as="geometry">
            <Array as="points">
              <mxPoint x="70" y="1040" />
            </Array>
          </mxGeometry>
        </mxCell>
        <mxCell id="T4jJ2TgZXyu-tDNirxbV-39" value="OnePageCheckout&lt;br&gt;Interactor&lt;br&gt;Place Order" style="whiteSpace=wrap;html=1;rounded=0;" vertex="1" parent="1">
          <mxGeometry x="10" y="930" width="120" height="60" as="geometry" />
        </mxCell>
        <mxCell id="T4jJ2TgZXyu-tDNirxbV-45" value="Yes" style="text;html=1;strokeColor=none;fillColor=none;align=center;verticalAlign=middle;whiteSpace=wrap;rounded=0;" vertex="1" parent="1">
          <mxGeometry x="314" y="610" width="60" height="30" as="geometry" />
        </mxCell>
        <mxCell id="T4jJ2TgZXyu-tDNirxbV-51" style="edgeStyle=orthogonalEdgeStyle;rounded=0;orthogonalLoop=1;jettySize=auto;html=1;entryX=0.5;entryY=0;entryDx=0;entryDy=0;" edge="1" parent="1" source="T4jJ2TgZXyu-tDNirxbV-47" target="T4jJ2TgZXyu-tDNirxbV-37">
          <mxGeometry relative="1" as="geometry" />
        </mxCell>
        <mxCell id="T4jJ2TgZXyu-tDNirxbV-47" value="OnePageCheckout&lt;br&gt;ViewModel&lt;br&gt;process 3ds secure payment" style="whiteSpace=wrap;html=1;rounded=0;" vertex="1" parent="1">
          <mxGeometry x="194" y="565" width="120" height="90" as="geometry" />
        </mxCell>
        <mxCell id="T4jJ2TgZXyu-tDNirxbV-52" value="Prepares MOTCore/PaymentInformation&lt;br&gt;" style="text;html=1;strokeColor=none;fillColor=none;align=center;verticalAlign=middle;whiteSpace=wrap;rounded=0;" vertex="1" parent="1">
          <mxGeometry x="70" y="700" width="210" height="30" as="geometry" />
        </mxCell>
      </root>
    </mxGraphModel>
  </diagram>
</mxfile>
